<?xml version="1.0" encoding="UTF-8"?>
<svg xmlns="http://www.w3.org/2000/svg" xmlns:xlink="http://www.w3.org/1999/xlink" width="20pt" height="20pt" viewBox="0 0 20 20" version="1.1">
<g id="surface12222692">
<path style=" stroke:none;fill-rule:nonzero;fill:rgb(96.078431%,39.607843%,39.607843%);fill-opacity:1;" d="M 10 20 C 4.476562 20 0 15.523438 0 10 C 0 4.476562 4.476562 0 10 0 C 15.523438 0 20 4.476562 20 10 C 20 15.523438 15.523438 20 10 20 Z M 10 20 "/>
<path style=" stroke:none;fill-rule:nonzero;fill:rgb(100%,100%,100%);fill-opacity:1;" d="M 9.371094 4.226562 C 6.722656 4.515625 4.589844 6.644531 4.304688 9.238281 C 4.015625 11.945312 5.570312 14.363281 7.933594 15.285156 C 8.105469 15.34375 8.277344 15.226562 8.277344 14.996094 L 8.277344 14.078125 C 8.277344 14.078125 8.046875 14.132812 7.757812 14.132812 C 6.953125 14.132812 6.605469 13.441406 6.550781 13.039062 C 6.492188 12.808594 6.375 12.636719 6.203125 12.464844 C 6.03125 12.40625 5.972656 12.40625 5.972656 12.347656 C 5.972656 12.234375 6.144531 12.234375 6.203125 12.234375 C 6.550781 12.234375 6.835938 12.636719 6.953125 12.808594 C 7.242188 13.269531 7.585938 13.386719 7.757812 13.386719 C 7.988281 13.386719 8.160156 13.328125 8.277344 13.269531 C 8.335938 12.867188 8.507812 12.464844 8.851562 12.234375 C 7.527344 11.945312 6.550781 11.195312 6.550781 9.929688 C 6.550781 9.296875 6.835938 8.664062 7.242188 8.203125 C 7.183594 8.085938 7.125 7.796875 7.125 7.394531 C 7.125 7.164062 7.125 6.820312 7.296875 6.472656 C 7.296875 6.472656 8.105469 6.472656 8.910156 7.222656 C 9.199219 7.105469 9.601562 7.050781 10.003906 7.050781 C 10.410156 7.050781 10.8125 7.105469 11.15625 7.222656 C 11.90625 6.472656 12.769531 6.472656 12.769531 6.472656 C 12.886719 6.820312 12.886719 7.164062 12.886719 7.394531 C 12.886719 7.855469 12.828125 8.085938 12.769531 8.203125 C 13.171875 8.664062 13.460938 9.238281 13.460938 9.929688 C 13.460938 11.195312 12.480469 11.945312 11.15625 12.234375 C 11.503906 12.519531 11.734375 13.039062 11.734375 13.558594 L 11.734375 15.054688 C 11.734375 15.226562 11.90625 15.402344 12.136719 15.34375 C 14.265625 14.480469 15.765625 12.40625 15.765625 9.988281 C 15.765625 6.53125 12.828125 3.824219 9.371094 4.226562 Z M 9.371094 4.226562 "/>
</g>
</svg>
