<?xml version="1.0" encoding="UTF-8"?>
<svg xmlns="http://www.w3.org/2000/svg" xmlns:xlink="http://www.w3.org/1999/xlink" width="20pt" height="20pt" viewBox="0 0 20 20" version="1.1">
<g id="surface12219311">
<path style=" stroke:none;fill-rule:nonzero;fill:rgb(96.078431%,39.607843%,39.607843%);fill-opacity:1;" d="M 10 20 C 4.476562 20 0 15.523438 0 10 C 0 4.476562 4.476562 0 10 0 C 15.523438 0 20 4.476562 20 10 C 20 15.523438 15.523438 20 10 20 Z M 10 20 "/>
<path style=" stroke:none;fill-rule:nonzero;fill:rgb(100%,100%,100%);fill-opacity:1;" d="M 7.0625 3 C 4.824219 3 3 4.824219 3 7.0625 L 3 12.9375 C 3 15.175781 4.824219 17 7.0625 17 L 12.9375 17 C 15.175781 17 17 15.175781 17 12.9375 L 17 7.0625 C 17 4.824219 15.175781 3 12.9375 3 Z M 7.0625 4.078125 L 12.9375 4.078125 C 14.589844 4.078125 15.921875 5.40625 15.921875 7.0625 L 15.921875 12.9375 C 15.921875 14.589844 14.59375 15.921875 12.9375 15.921875 L 7.0625 15.921875 C 5.410156 15.921875 4.078125 14.59375 4.078125 12.9375 L 4.078125 7.0625 C 4.078125 5.410156 5.40625 4.078125 7.0625 4.078125 Z M 14.039062 5.152344 C 13.59375 5.152344 13.230469 5.515625 13.230469 5.960938 C 13.230469 6.40625 13.59375 6.769531 14.039062 6.769531 C 14.484375 6.769531 14.847656 6.40625 14.847656 5.960938 C 14.847656 5.515625 14.484375 5.152344 14.039062 5.152344 Z M 10 6.230469 C 7.925781 6.230469 6.230469 7.925781 6.230469 10 C 6.230469 12.074219 7.925781 13.769531 10 13.769531 C 12.074219 13.769531 13.769531 12.074219 13.769531 10 C 13.769531 7.925781 12.074219 6.230469 10 6.230469 Z M 10 7.308594 C 11.492188 7.308594 12.691406 8.507812 12.691406 10 C 12.691406 11.492188 11.492188 12.691406 10 12.691406 C 8.507812 12.691406 7.308594 11.492188 7.308594 10 C 7.308594 8.507812 8.507812 7.308594 10 7.308594 Z M 10 7.308594 "/>
</g>
</svg>
