<?xml version="1.0" encoding="UTF-8"?>
<svg xmlns="http://www.w3.org/2000/svg" xmlns:xlink="http://www.w3.org/1999/xlink" width="20pt" height="20pt" viewBox="0 0 20 20" version="1.1">
<g id="surface12218270">
<path style=" stroke:none;fill-rule:nonzero;fill:rgb(96.078431%,39.607843%,39.607843%);fill-opacity:1;" d="M 10 20 C 4.476562 20 0 15.523438 0 10 C 0 4.476562 4.476562 0 10 0 C 15.523438 0 20 4.476562 20 10 C 20 15.523438 15.523438 20 10 20 Z M 10 20 "/>
<path style=" stroke:none;fill-rule:nonzero;fill:rgb(100%,100%,100%);fill-opacity:1;" d="M 14.480469 4.121094 L 5.519531 4.121094 C 4.746094 4.121094 4.121094 4.746094 4.121094 5.519531 L 4.121094 14.480469 C 4.121094 15.253906 4.746094 15.878906 5.519531 15.878906 L 14.480469 15.878906 C 15.253906 15.878906 15.878906 15.253906 15.878906 14.480469 L 15.878906 5.519531 C 15.878906 4.746094 15.253906 4.121094 14.480469 4.121094 Z M 7.761719 8.601562 L 7.761719 13.921875 L 6.078125 13.921875 L 6.078125 8.601562 Z M 6.078125 7.050781 C 6.078125 6.660156 6.414062 6.359375 6.921875 6.359375 C 7.425781 6.359375 7.742188 6.660156 7.761719 7.050781 C 7.761719 7.445312 7.445312 7.761719 6.921875 7.761719 C 6.414062 7.761719 6.078125 7.445312 6.078125 7.050781 Z M 13.921875 13.921875 L 12.238281 13.921875 C 12.238281 13.921875 12.238281 11.328125 12.238281 11.121094 C 12.238281 10.558594 11.960938 10 11.261719 9.988281 L 11.238281 9.988281 C 10.558594 9.988281 10.28125 10.566406 10.28125 11.121094 C 10.28125 11.375 10.28125 13.921875 10.28125 13.921875 L 8.601562 13.921875 L 8.601562 8.601562 L 10.28125 8.601562 L 10.28125 9.316406 C 10.28125 9.316406 10.820312 8.601562 11.90625 8.601562 C 13.019531 8.601562 13.921875 9.363281 13.921875 10.914062 Z M 13.921875 13.921875 "/>
</g>
</svg>
