<?xml version="1.0" encoding="UTF-8"?>
<svg xmlns="http://www.w3.org/2000/svg" xmlns:xlink="http://www.w3.org/1999/xlink" width="20pt" height="20pt" viewBox="0 0 20 20" version="1.1">
<g id="surface10769704">
<path style=" stroke:none;fill-rule:nonzero;fill:rgb(96.078431%,39.607843%,39.607843%);fill-opacity:1;" d="M 10 20 C 4.476562 20 0 15.523438 0 10 C 0 4.476562 4.476562 0 10 0 C 15.523438 0 20 4.476562 20 10 C 20 15.523438 15.523438 20 10 20 Z M 10 20 "/>
<path style=" stroke:none;fill-rule:nonzero;fill:rgb(100%,100%,100%);fill-opacity:1;" d="M 16.324219 6.46875 C 15.859375 6.675781 15.359375 6.816406 14.832031 6.878906 C 15.371094 6.558594 15.78125 6.050781 15.972656 5.445312 C 15.472656 5.742188 14.917969 5.957031 14.328125 6.074219 C 13.851562 5.570312 13.179688 5.253906 12.433594 5.253906 C 11 5.253906 9.835938 6.414062 9.835938 7.847656 C 9.835938 8.050781 9.859375 8.25 9.90625 8.441406 C 7.75 8.332031 5.835938 7.296875 4.558594 5.726562 C 4.332031 6.113281 4.207031 6.558594 4.207031 7.035156 C 4.207031 7.933594 4.664062 8.726562 5.359375 9.195312 C 4.933594 9.179688 4.535156 9.0625 4.183594 8.867188 C 4.183594 8.878906 4.183594 8.890625 4.183594 8.902344 C 4.183594 10.160156 5.078125 11.207031 6.265625 11.445312 C 6.046875 11.503906 5.820312 11.535156 5.582031 11.535156 C 5.414062 11.535156 5.253906 11.519531 5.09375 11.488281 C 5.425781 12.519531 6.382812 13.273438 7.515625 13.292969 C 6.628906 13.988281 5.511719 14.402344 4.296875 14.402344 C 4.085938 14.402344 3.878906 14.390625 3.675781 14.367188 C 4.824219 15.101562 6.1875 15.53125 7.65625 15.53125 C 12.425781 15.53125 15.035156 11.578125 15.035156 8.148438 C 15.035156 8.039062 15.035156 7.925781 15.03125 7.8125 C 15.535156 7.449219 15.976562 6.992188 16.324219 6.46875 Z M 16.324219 6.46875 "/>
</g>
</svg>
