<?xml version="1.0" encoding="UTF-8"?>
<svg xmlns="http://www.w3.org/2000/svg" xmlns:xlink="http://www.w3.org/1999/xlink" width="20pt" height="20pt" viewBox="0 0 20 20" version="1.1">
<g id="surface12256609">
<path style=" stroke:none;fill-rule:nonzero;fill:rgb(96.078431%,39.607843%,39.607843%);fill-opacity:1;" d="M 10 20 C 4.476562 20 0 15.523438 0 10 C 0 4.476562 4.476562 0 10 0 C 15.523438 0 20 4.476562 20 10 C 20 15.523438 15.523438 20 10 20 Z M 10 20 "/>
<path style=" stroke:none;fill-rule:nonzero;fill:rgb(100%,100%,100%);fill-opacity:1;" d="M 8.15625 4.457031 C 8.15625 4.457031 6.230469 4.585938 4.96875 5.601562 C 4.964844 5.601562 4.957031 5.605469 4.949219 5.609375 C 4.730469 5.8125 4.566406 6.125 4.363281 6.574219 C 4.160156 7.023438 3.945312 7.601562 3.75 8.246094 C 3.359375 9.542969 3.039062 11.128906 3.039062 12.625 C 3.039062 12.679688 3.050781 12.730469 3.078125 12.777344 C 3.519531 13.554688 4.332031 14.023438 5.09375 14.320312 C 5.851562 14.613281 6.550781 14.730469 6.90625 14.742188 C 7.007812 14.746094 7.105469 14.703125 7.164062 14.621094 L 7.902344 13.601562 C 8.496094 13.742188 9.191406 13.835938 10 13.835938 C 10.808594 13.835938 11.503906 13.742188 12.097656 13.601562 L 12.835938 14.621094 C 12.894531 14.703125 12.992188 14.746094 13.09375 14.742188 C 13.449219 14.730469 14.148438 14.613281 14.90625 14.320312 C 15.667969 14.023438 16.480469 13.554688 16.921875 12.777344 C 16.949219 12.730469 16.960938 12.679688 16.960938 12.625 C 16.960938 11.128906 16.640625 9.542969 16.25 8.246094 C 16.054688 7.601562 15.839844 7.023438 15.636719 6.574219 C 15.433594 6.125 15.269531 5.8125 15.050781 5.609375 C 15.042969 5.605469 15.035156 5.601562 15.03125 5.601562 C 13.769531 4.585938 11.84375 4.457031 11.84375 4.457031 C 11.820312 4.453125 11.800781 4.453125 11.777344 4.457031 C 11.671875 4.46875 11.582031 4.539062 11.542969 4.636719 C 11.542969 4.636719 11.4375 4.859375 11.371094 5.183594 C 10.78125 5.089844 10.285156 5.0625 10 5.0625 C 9.714844 5.0625 9.21875 5.089844 8.628906 5.183594 C 8.5625 4.859375 8.457031 4.636719 8.457031 4.636719 C 8.40625 4.515625 8.285156 4.445312 8.15625 4.457031 Z M 7.96875 5.109375 C 7.988281 5.167969 8.003906 5.226562 8.023438 5.296875 C 7.339844 5.457031 6.59375 5.714844 5.894531 6.148438 C 5.785156 6.195312 5.714844 6.300781 5.710938 6.421875 C 5.707031 6.539062 5.773438 6.648438 5.882812 6.699219 C 5.988281 6.75 6.117188 6.734375 6.207031 6.660156 C 7.609375 5.789062 9.394531 5.664062 10 5.664062 C 10.605469 5.664062 12.390625 5.789062 13.792969 6.660156 C 13.882812 6.734375 14.011719 6.75 14.117188 6.699219 C 14.226562 6.648438 14.292969 6.539062 14.289062 6.421875 C 14.285156 6.300781 14.214844 6.195312 14.105469 6.148438 C 13.40625 5.714844 12.660156 5.457031 11.976562 5.296875 C 11.996094 5.226562 12.011719 5.167969 12.03125 5.109375 C 12.378906 5.152344 13.71875 5.332031 14.632812 6.054688 C 14.691406 6.109375 14.898438 6.410156 15.085938 6.828125 C 15.277344 7.246094 15.476562 7.792969 15.664062 8.417969 C 16.03125 9.636719 16.332031 11.140625 16.34375 12.523438 C 16 13.078125 15.355469 13.492188 14.691406 13.75 C 14.085938 13.988281 13.519531 14.089844 13.226562 14.121094 L 12.714844 13.429688 C 12.972656 13.34375 13.207031 13.253906 13.414062 13.164062 C 14.175781 12.828125 14.585938 12.472656 14.585938 12.472656 C 14.710938 12.363281 14.722656 12.167969 14.609375 12.042969 C 14.496094 11.917969 14.304688 11.910156 14.179688 12.019531 C 14.179688 12.019531 13.863281 12.308594 13.167969 12.617188 C 12.914062 12.730469 12.601562 12.839844 12.25 12.9375 C 12.167969 12.929688 12.085938 12.953125 12.023438 13.003906 C 11.460938 13.140625 10.789062 13.230469 10 13.230469 C 9.203125 13.230469 8.53125 13.132812 7.96875 12.996094 C 7.902344 12.953125 7.824219 12.933594 7.75 12.949219 C 7.394531 12.847656 7.089844 12.730469 6.832031 12.617188 C 6.136719 12.308594 5.820312 12.019531 5.820312 12.019531 C 5.75 11.957031 5.65625 11.929688 5.566406 11.945312 C 5.449219 11.960938 5.351562 12.046875 5.320312 12.160156 C 5.285156 12.273438 5.324219 12.398438 5.414062 12.472656 C 5.414062 12.472656 5.824219 12.828125 6.585938 13.164062 C 6.792969 13.253906 7.027344 13.34375 7.285156 13.429688 L 6.773438 14.121094 C 6.480469 14.089844 5.914062 13.988281 5.308594 13.75 C 4.644531 13.492188 4 13.078125 3.65625 12.523438 C 3.667969 11.140625 3.964844 9.636719 4.335938 8.417969 C 4.523438 7.792969 4.722656 7.246094 4.914062 6.828125 C 5.101562 6.410156 5.308594 6.109375 5.367188 6.054688 C 6.28125 5.332031 7.621094 5.152344 7.96875 5.109375 Z M 8.03125 8.691406 C 7.261719 8.691406 6.671875 9.394531 6.671875 10.203125 C 6.671875 11.015625 7.261719 11.71875 8.03125 11.71875 C 8.804688 11.71875 9.394531 11.015625 9.394531 10.203125 C 9.394531 9.394531 8.804688 8.691406 8.03125 8.691406 Z M 11.96875 8.691406 C 11.195312 8.691406 10.605469 9.394531 10.605469 10.203125 C 10.605469 11.015625 11.195312 11.71875 11.96875 11.71875 C 12.738281 11.71875 13.328125 11.015625 13.328125 10.203125 C 13.328125 9.394531 12.738281 8.691406 11.96875 8.691406 Z M 8.03125 9.296875 C 8.429688 9.296875 8.789062 9.679688 8.789062 10.203125 C 8.789062 10.730469 8.429688 11.113281 8.03125 11.113281 C 7.632812 11.113281 7.277344 10.730469 7.277344 10.203125 C 7.277344 9.679688 7.632812 9.296875 8.03125 9.296875 Z M 11.96875 9.296875 C 12.367188 9.296875 12.722656 9.679688 12.722656 10.203125 C 12.722656 10.730469 12.367188 11.113281 11.96875 11.113281 C 11.570312 11.113281 11.210938 10.730469 11.210938 10.203125 C 11.210938 9.679688 11.570312 9.296875 11.96875 9.296875 Z M 11.96875 9.296875 "/>
</g>
</svg>
